<svg width="32" height="32" viewBox="0 0 32 32" fill="none" xmlns="http://www.w3.org/2000/svg">
<g clip-path="url(#clip0_514_486)">
<path d="M20 10.6667C20.828 11.2876 21.5 12.0929 21.9628 13.0186C22.4257 13.9443 22.6667 14.965 22.6667 16C22.6667 17.035 22.4257 18.0557 21.9628 18.9814C21.5 19.9071 20.828 20.7123 20 21.3333M23.6 6.66665C24.992 7.79152 26.1147 9.21348 26.886 10.8284C27.6572 12.4433 28.0575 14.2103 28.0575 16C28.0575 17.7896 27.6572 19.5566 26.886 21.1716C26.1147 22.7865 24.992 24.2085 23.6 25.3333M8 20H5.33333C4.97971 20 4.64057 19.8595 4.39052 19.6095C4.14048 19.3594 4 19.0203 4 18.6667V13.3333C4 12.9797 4.14048 12.6406 4.39052 12.3905C4.64057 12.1405 4.97971 12 5.33333 12H8L12.6667 5.99998C12.7832 5.77362 12.9769 5.59641 13.2127 5.50037C13.4484 5.40433 13.7108 5.3958 13.9523 5.47631C14.1939 5.55682 14.3986 5.72107 14.5296 5.93937C14.6606 6.15768 14.7092 6.41564 14.6667 6.66665V25.3333C14.7092 25.5843 14.6606 25.8423 14.5296 26.0606C14.3986 26.2789 14.1939 26.4431 13.9523 26.5237C13.7108 26.6042 13.4484 26.5956 13.2127 26.4996C12.9769 26.4036 12.7832 26.2263 12.6667 26L8 20Z" stroke="white" stroke-opacity="0.8" stroke-width="2.31" stroke-linecap="round" stroke-linejoin="round"/>
<path d="M26.5 5L5 26.5" stroke="white" stroke-opacity="0.8" stroke-width="2.31" stroke-linecap="round" stroke-linejoin="round"/>
</g>
<defs>
<clipPath id="clip0_514_486">
<rect width="32" height="32" fill="white"/>
</clipPath>
</defs>
</svg>
