<svg width="32" height="32" viewBox="0 0 32 32" fill="none" xmlns="http://www.w3.org/2000/svg">
<g clip-path="url(#clip0_514_451)">
<path d="M10.6662 12H21.3328M10.6662 17.3333H18.6662M23.9995 5.33331C25.0604 5.33331 26.0778 5.75474 26.8279 6.50489C27.5781 7.25503 27.9995 8.27245 27.9995 9.33331V20C27.9995 21.0608 27.5781 22.0783 26.8279 22.8284C26.0778 23.5786 25.0604 24 23.9995 24H17.3328L10.6662 28V24H7.99951C6.93865 24 5.92123 23.5786 5.17108 22.8284C4.42094 22.0783 3.99951 21.0608 3.99951 20V9.33331C3.99951 8.27245 4.42094 7.25503 5.17108 6.50489C5.92123 5.75474 6.93865 5.33331 7.99951 5.33331H23.9995Z" stroke="#C2D24B" stroke-width="2.30943" stroke-linecap="round" stroke-linejoin="round"/>
</g>
<defs>
<clipPath id="clip0_514_451">
<rect width="32" height="32" fill="white"/>
</clipPath>
</defs>
</svg>
