<svg width="32" height="32" viewBox="0 0 32 32" fill="none" xmlns="http://www.w3.org/2000/svg">
<g clip-path="url(#clip0_514_478)">
<path d="M10.666 13.3333C10.666 12.626 10.947 11.9478 11.4471 11.4477C11.9472 10.9476 12.6254 10.6666 13.3327 10.6666H23.9993C24.7066 10.6666 25.3849 10.9476 25.885 11.4477C26.3851 11.9478 26.666 12.626 26.666 13.3333V24C26.666 24.7072 26.3851 25.3855 25.885 25.8856C25.3849 26.3857 24.7066 26.6666 23.9993 26.6666H13.3327C12.6254 26.6666 11.9472 26.3857 11.4471 25.8856C10.947 25.3855 10.666 24.7072 10.666 24V13.3333Z" stroke="white" stroke-opacity="0.8" stroke-width="2.31" stroke-linecap="round" stroke-linejoin="round"/>
<path d="M21.333 10.6666V7.99998C21.333 7.29274 21.0521 6.61446 20.552 6.11436C20.0519 5.61426 19.3736 5.33331 18.6663 5.33331H7.99967C7.29243 5.33331 6.61415 5.61426 6.11406 6.11436C5.61396 6.61446 5.33301 7.29274 5.33301 7.99998V18.6666C5.33301 19.3739 5.61396 20.0522 6.11406 20.5523C6.61415 21.0524 7.29243 21.3333 7.99967 21.3333H10.6663" stroke="white" stroke-opacity="0.8" stroke-width="2.31" stroke-linecap="round" stroke-linejoin="round"/>
</g>
<defs>
<clipPath id="clip0_514_478">
<rect width="32" height="32" fill="white"/>
</clipPath>
</defs>
</svg>
