<svg width="32" height="32" viewBox="0 0 32 32" fill="none" xmlns="http://www.w3.org/2000/svg">
<g clip-path="url(#clip0_514_461)">
<path d="M9.33333 17.3334V6.66669C9.33333 6.31306 9.19286 5.97392 8.94281 5.72388C8.69276 5.47383 8.35362 5.33335 8 5.33335H5.33333C4.97971 5.33335 4.64057 5.47383 4.39052 5.72388C4.14048 5.97392 4 6.31306 4 6.66669V16C4 16.3536 4.14048 16.6928 4.39052 16.9428C4.64057 17.1929 4.97971 17.3334 5.33333 17.3334H9.33333ZM9.33333 17.3334C10.7478 17.3334 12.1044 17.8953 13.1046 18.8955C14.1048 19.8956 14.6667 21.2522 14.6667 22.6667V24C14.6667 24.7073 14.9476 25.3855 15.4477 25.8856C15.9478 26.3857 16.6261 26.6667 17.3333 26.6667C18.0406 26.6667 18.7189 26.3857 19.219 25.8856C19.719 25.3855 20 24.7073 20 24V17.3334H24C24.7072 17.3334 25.3855 17.0524 25.8856 16.5523C26.3857 16.0522 26.6667 15.3739 26.6667 14.6667L25.3333 8.00002C25.1416 7.18205 24.7778 6.47969 24.2969 5.99873C23.8159 5.51777 23.2438 5.28426 22.6667 5.33335H13.3333C12.2725 5.33335 11.2551 5.75478 10.5049 6.50493C9.75476 7.25507 9.33333 8.27249 9.33333 9.33335" stroke="white" stroke-opacity="0.8" stroke-width="2.31" stroke-linecap="round" stroke-linejoin="round"/>
</g>
<defs>
<clipPath id="clip0_514_461">
<rect width="32" height="32" fill="white" transform="matrix(1 0 0 -1 0 32)"/>
</clipPath>
</defs>
</svg>
