<svg width="32" height="32" viewBox="0 0 32 32" fill="none" xmlns="http://www.w3.org/2000/svg">
<g clip-path="url(#clip0_514_458)">
<path d="M9.33382 14.6666V25.3333C9.33382 25.6869 9.19335 26.0261 8.9433 26.2761C8.69325 26.5262 8.35411 26.6666 8.00049 26.6666H5.33382C4.9802 26.6666 4.64106 26.5262 4.39101 26.2761C4.14096 26.0261 4.00049 25.6869 4.00049 25.3333V16C4.00049 15.6464 4.14096 15.3072 4.39101 15.0572C4.64106 14.8071 4.9802 14.6666 5.33382 14.6666H9.33382ZM9.33382 14.6666C10.7483 14.6666 12.1049 14.1047 13.1051 13.1045C14.1053 12.1044 14.6672 10.7478 14.6672 9.33331V7.99998C14.6672 7.29274 14.9481 6.61446 15.4482 6.11436C15.9483 5.61426 16.6266 5.33331 17.3338 5.33331C18.0411 5.33331 18.7193 5.61426 19.2194 6.11436C19.7195 6.61446 20.0005 7.29274 20.0005 7.99998V14.6666H24.0005C24.7077 14.6666 25.386 14.9476 25.8861 15.4477C26.3862 15.9478 26.6672 16.6261 26.6672 17.3333L25.3338 24C25.1421 24.8179 24.7783 25.5203 24.2974 26.0013C23.8164 26.4822 23.2443 26.7157 22.6672 26.6666H13.3338C12.273 26.6666 11.2555 26.2452 10.5054 25.4951C9.75525 24.7449 9.33382 23.7275 9.33382 22.6666" stroke="white" stroke-opacity="0.8" stroke-width="2.31" stroke-linecap="round" stroke-linejoin="round"/>
</g>
<defs>
<clipPath id="clip0_514_458">
<rect width="32" height="32" fill="white"/>
</clipPath>
</defs>
</svg>
