<svg width="32" height="32" viewBox="0 0 32 32" fill="none" xmlns="http://www.w3.org/2000/svg">
<g clip-path="url(#clip0_514_473)">
<path d="M26.5773 17.388C26.3255 19.3079 25.5558 21.1231 24.3508 22.6389C23.1458 24.1546 21.5509 25.3138 19.7372 25.992C17.9235 26.6702 15.9594 26.842 14.0555 26.4888C12.1516 26.1355 10.3797 25.2707 8.92999 23.9871C7.48024 22.7034 6.40727 21.0493 5.82615 19.2022C5.24503 17.3551 5.17768 15.3846 5.63132 13.5021C6.08497 11.6196 7.0425 9.89611 8.40122 8.51645C9.75994 7.1368 11.4686 6.15303 13.3439 5.67065C18.5426 4.33731 23.9239 7.01331 25.9106 12" stroke="white" stroke-opacity="0.8" stroke-width="2.31" stroke-linecap="round" stroke-linejoin="round"/>
<path d="M26.6667 5.33331V12H20" stroke="white" stroke-opacity="0.8" stroke-width="2.31" stroke-linecap="round" stroke-linejoin="round"/>
</g>
<defs>
<clipPath id="clip0_514_473">
<rect width="32" height="32" fill="white"/>
</clipPath>
</defs>
</svg>
