<svg width="32" height="32" viewBox="0 0 32 32" fill="none" xmlns="http://www.w3.org/2000/svg">
<g clip-path="url(#clip0_514_455)">
<path d="M11.8931 14.3822L20.1065 10.1511M11.8931 17.6178L20.1065 21.8489M4.7998 16C4.7998 16.9901 5.19314 17.9397 5.89327 18.6399C6.59341 19.34 7.543 19.7333 8.53314 19.7333C9.52328 19.7333 10.4729 19.34 11.173 18.6399C11.8731 17.9397 12.2665 16.9901 12.2665 16C12.2665 15.0098 11.8731 14.0603 11.173 13.3601C10.4729 12.66 9.52328 12.2667 8.53314 12.2667C7.543 12.2667 6.59341 12.66 5.89327 13.3601C5.19314 14.0603 4.7998 15.0098 4.7998 16ZM19.7331 8.53332C19.7331 9.52346 20.1265 10.4731 20.8266 11.1732C21.5267 11.8733 22.4763 12.2667 23.4665 12.2667C24.4566 12.2667 25.4062 11.8733 26.1063 11.1732C26.8065 10.4731 27.1998 9.52346 27.1998 8.53332C27.1998 7.54318 26.8065 6.59359 26.1063 5.89346C25.4062 5.19332 24.4566 4.79999 23.4665 4.79999C22.4763 4.79999 21.5267 5.19332 20.8266 5.89346C20.1265 6.59359 19.7331 7.54318 19.7331 8.53332ZM19.7331 23.4667C19.7331 24.4568 20.1265 25.4064 20.8266 26.1065C21.5267 26.8067 22.4763 27.2 23.4665 27.2C24.4566 27.2 25.4062 26.8067 26.1063 26.1065C26.8065 25.4064 27.1998 24.4568 27.1998 23.4667C27.1998 22.4765 26.8065 21.5269 26.1063 20.8268C25.4062 20.1267 24.4566 19.7333 23.4665 19.7333C22.4763 19.7333 21.5267 20.1267 20.8266 20.8268C20.1265 21.5269 19.7331 22.4765 19.7331 23.4667Z" stroke="white" stroke-opacity="0.8" stroke-width="2.31" stroke-linecap="round" stroke-linejoin="round"/>
</g>
<defs>
<clipPath id="clip0_514_455">
<rect width="32" height="32" fill="white"/>
</clipPath>
</defs>
</svg>
